ffmpeg started on 2025-05-12 at 16:54:49
Report written to "D:\Convert\FFMetrics\reports\psnr_report-6.txt"
Log level: 32
Command line:
ffmpeg -hide_banner -nostdin -i "G:\\\xc0\xed\xe8\xec\xe5\\\xce\xed\xe3\xee\xe8\xed\xe3\xe8\\!_35_\xcb\xe5\xf2\xee_2024\\DreamCast\\\xce\xef\xe5\xf0\xe0\xf6\xe8\xff - \xd1\xe5\xec\xe5\xe9\xea\xe0 \xa8\xe4\xe7\xe0\xea\xf3\xf0\xe0\\[DC] Yozakura-san Chi no Daisakusen - 01_Telegram_HEVC.mkv" -i "G:\\\xc0\xed\xe8\xec\xe5\\\xce\xed\xe3\xee\xe8\xed\xe3\xe8\\!_35_\xcb\xe5\xf2\xee_2024\\DreamCast\\\xce\xef\xe5\xf0\xe0\xf6\xe8\xff - \xd1\xe5\xec\xe5\xe9\xea\xe0 \xa8\xe4\xe7\xe0\xea\xf3\xf0\xe0\\[DC] Yozakura-san Chi no Daisakusen - 01_Telegram.mp4" -lavfi "[0:v]settb=AVTB,setpts=PTS-STARTPTS,format=pix_fmts=yuv420p10,fps=24000/1001,scale=1920:1080:flags=bicubic[main];[1:v]settb=AVTB,setpts=PTS-STARTPTS,format=pix_fmts=yuv420p,fps=24000/1001,scale=1920:1080:flags=bicubic[ref];[main][ref]psnr=eof_action=endall:stats_file='D\\:/Convert/FFMetrics/logs/psnr_logfile-6.txt'" -f null -
Input #0, matroska,webm, from 'G:\Аниме\Онгоинги\!_35_Лето_2024\DreamCast\Операция - Семейка Ёдзакура\[DC] Yozakura-san Chi no Daisakusen - 01_Telegram_HEVC.mkv':
  Metadata:
    COMPATIBLE_BRANDS: isomiso2avc1mp41
    MAJOR_BRAND     : isom
    MINOR_VERSION   : 512
    ENCODER         : Lavf61.7.100
  Duration: 00:24:21.59, start: -0.021000, bitrate: 1082 kb/s
  Stream #0:0: Video: hevc (Main 10), yuv420p10le(tv, bt709, progressive), 1920x1080 [SAR 1:1 DAR 16:9], 23.81 fps, 23.81 tbr, 1k tbn (default)
      Metadata:
        HANDLER_NAME    : VideoHandler
        VENDOR_ID       : [0][0][0][0]
        ENCODER         : Lavc61.19.100 libx265
        BPS             : 885302
        DURATION        : 00:24:21.516000000
        NUMBER_OF_FRAMES: 34798
        NUMBER_OF_BYTES : 161735482
        _STATISTICS_WRITING_APP: mkvpropedit v66.0.0 ('Josie') 64-bit
        _STATISTICS_WRITING_DATE_UTC: 2025-05-08 12:21:37
        _STATISTICS_TAGS: BPS DURATION NUMBER_OF_FRAMES NUMBER_OF_BYTES
  Stream #0:1: Audio: aac (LC), 48000 Hz, stereo, fltp (default)
      Metadata:
        HANDLER_NAME    : SoundHandler
        VENDOR_ID       : [0][0][0][0]
        ENCODER         : Lavc61.19.100 aac
        BPS             : 193547
        DURATION        : 00:24:21.589000000
        NUMBER_OF_FRAMES: 68513
        NUMBER_OF_BYTES : 35360949
        _STATISTICS_WRITING_APP: mkvpropedit v66.0.0 ('Josie') 64-bit
        _STATISTICS_WRITING_DATE_UTC: 2025-05-08 12:21:37
        _STATISTICS_TAGS: BPS DURATION NUMBER_OF_FRAMES NUMBER_OF_BYTES
Input #1, mov,mp4,m4a,3gp,3g2,mj2, from 'G:\Аниме\Онгоинги\!_35_Лето_2024\DreamCast\Операция - Семейка Ёдзакура\[DC] Yozakura-san Chi no Daisakusen - 01_Telegram.mp4':
  Metadata:
    major_brand     : isom
    minor_version   : 512
    compatible_brands: isomiso2avc1mp41
    encoder         : Lavf60.16.100
  Duration: 00:24:21.57, start: 0.000000, bitrate: 3408 kb/s
  Stream #1:0[0x1](und): Video: h264 (High) (avc1 / 0x31637661), yuv420p(tv, bt709, progressive), 1920x1080 [SAR 1:1 DAR 16:9], 3260 kb/s, 23.81 fps, 23.81 tbr, 16k tbn (default)
      Metadata:
        handler_name    : VideoHandler
        vendor_id       : [0][0][0][0]
        encoder         : Lavc60.31.102 h264_qsv
  Stream #1:1[0x2](und): Audio: aac (HE-AACv2) (mp4a / 0x6134706D), 48000 Hz, stereo, fltp, 144 kb/s (default)
      Metadata:
        handler_name    : SoundHandler
        vendor_id       : [0][0][0][0]
Stream mapping:
  Stream #0:0 (hevc) -> settb:default
  Stream #1:0 (h264) -> settb:default
  psnr:default -> Stream #0:0 (wrapped_avframe)
  Stream #0:1 -> #0:1 (aac (native) -> pcm_s16le (native))
Output #0, null, to 'pipe:':
  Metadata:
    COMPATIBLE_BRANDS: isomiso2avc1mp41
    MAJOR_BRAND     : isom
    MINOR_VERSION   : 512
    encoder         : Lavf61.7.100
  Stream #0:0: Video: wrapped_avframe, yuv420p10le(tv, bt709, progressive), 1920x1080 [SAR 1:1 DAR 16:9], q=2-31, 200 kb/s, 23.98 fps, 23.98 tbn
      Metadata:
        encoder         : Lavc61.19.100 wrapped_avframe
  Stream #0:1: Audio: pcm_s16le, 48000 Hz, stereo, s16, 1536 kb/s (default)
      Metadata:
        HANDLER_NAME    : SoundHandler
        VENDOR_ID       : [0][0][0][0]
        _STATISTICS_TAGS: BPS DURATION NUMBER_OF_FRAMES NUMBER_OF_BYTES
        BPS             : 193547
        DURATION        : 00:24:21.589000000
        NUMBER_OF_FRAMES: 68513
        NUMBER_OF_BYTES : 35360949
        _STATISTICS_WRITING_APP: mkvpropedit v66.0.0 ('Josie') 64-bit
        _STATISTICS_WRITING_DATE_UTC: 2025-05-08 12:21:37
        encoder         : Lavc61.19.100 pcm_s16le
frame=  154 fps=0.0 q=-0.0 size=N/A time=00:00:06.42 bitrate=N/A speed=12.2x    frame=  407 fps=394 q=-0.0 size=N/A time=00:00:16.97 bitrate=N/A speed=16.4x    frame=  672 fps=432 q=-0.0 size=N/A time=00:00:28.02 bitrate=N/A speed=  18x    frame=  931 fps=449 q=-0.0 size=N/A time=00:00:38.83 bitrate=N/A speed=18.7x    frame= 1190 fps=458 q=-0.0 size=N/A time=00:00:49.63 bitrate=N/A speed=19.1x    frame= 1446 fps=466 q=-0.0 size=N/A time=00:01:00.31 bitrate=N/A speed=19.4x    frame= 1714 fps=472 q=-0.0 size=N/A time=00:01:11.48 bitrate=N/A speed=19.7x    frame= 1970 fps=476 q=-0.0 size=N/A time=00:01:22.16 bitrate=N/A speed=19.9x    frame= 2243 fps=481 q=-0.0 size=N/A time=00:01:33.55 bitrate=N/A speed=20.1x    frame= 2515 fps=486 q=-0.0 size=N/A time=00:01:44.89 bitrate=N/A speed=20.3x    frame= 2781 fps=488 q=-0.0 size=N/A time=00:01:55.99 bitrate=N/A speed=20.4x    frame= 3046 fps=490 q=-0.0 size=N/A time=00:02:07.04 bitrate=N/A speed=20.5x    frame= 3319 fps=494 q=-0.0 size=N/A time=00:02:18.42 bitrate=N/A speed=20.6x    frame= 3573 fps=493 q=-0.0 size=N/A time=00:02:29.02 bitrate=N/A speed=20.6x    frame= 3833 fps=494 q=-0.0 size=N/A time=00:02:39.86 bitrate=N/A speed=20.6x    frame= 4103 fps=496 q=-0.0 size=N/A time=00:02:51.12 bitrate=N/A speed=20.7x    frame= 4388 fps=499 q=-0.0 size=N/A time=00:03:03.01 bitrate=N/A speed=20.8x    frame= 4654 fps=500 q=-0.0 size=N/A time=00:03:14.11 bitrate=N/A speed=20.9x    frame= 4936 fps=503 q=-0.0 size=N/A time=00:03:25.87 bitrate=N/A speed=  21x    frame= 5203 fps=504 q=-0.0 size=N/A time=00:03:37.00 bitrate=N/A speed=  21x    frame= 5471 fps=504 q=-0.0 size=N/A time=00:03:48.18 bitrate=N/A speed=  21x    frame= 5712 fps=503 q=-0.0 size=N/A time=00:03:58.23 bitrate=N/A speed=  21x    frame= 6000 fps=505 q=-0.0 size=N/A time=00:04:10.25 bitrate=N/A speed=21.1x    frame= 6262 fps=505 q=-0.0 size=N/A time=00:04:21.17 bitrate=N/A speed=21.1x    frame= 6546 fps=507 q=-0.0 size=N/A time=00:04:33.02 bitrate=N/A speed=21.1x    frame= 6822 fps=508 q=-0.0 size=N/A time=00:04:44.53 bitrate=N/A speed=21.2x    frame= 7099 fps=509 q=-0.0 size=N/A time=00:04:56.08 bitrate=N/A speed=21.2x    frame= 7361 fps=509 q=-0.0 size=N/A time=00:05:07.01 bitrate=N/A speed=21.2x    frame= 7618 fps=509 q=-0.0 size=N/A time=00:05:17.73 bitrate=N/A speed=21.2x    frame= 7868 fps=508 q=-0.0 size=N/A time=00:05:28.16 bitrate=N/A speed=21.2x    frame= 8147 fps=509 q=-0.0 size=N/A time=00:05:39.79 bitrate=N/A speed=21.2x    frame= 8429 fps=510 q=-0.0 size=N/A time=00:05:51.55 bitrate=N/A speed=21.3x    frame= 8693 fps=510 q=-0.0 size=N/A time=00:06:02.61 bitrate=N/A speed=21.3x    frame= 8977 fps=511 q=-0.0 size=N/A time=00:06:14.41 bitrate=N/A speed=21.3x    frame= 9257 fps=512 q=-0.0 size=N/A time=00:06:26.09 bitrate=N/A speed=21.4x    frame= 9545 fps=513 q=-0.0 size=N/A time=00:06:38.10 bitrate=N/A speed=21.4x    frame= 9812 fps=514 q=-0.0 size=N/A time=00:06:49.24 bitrate=N/A speed=21.4x    frame=10101 fps=515 q=-0.0 size=N/A time=00:07:01.29 bitrate=N/A speed=21.5x    frame=10354 fps=514 q=-0.0 size=N/A time=00:07:11.84 bitrate=N/A speed=21.5x    frame=10605 fps=514 q=-0.0 size=N/A time=00:07:22.31 bitrate=N/A speed=21.4x    frame=10876 fps=514 q=-0.0 size=N/A time=00:07:33.61 bitrate=N/A speed=21.4x    frame=11131 fps=513 q=-0.0 size=N/A time=00:07:44.25 bitrate=N/A speed=21.4x    frame=11385 fps=513 q=-0.0 size=N/A time=00:07:54.84 bitrate=N/A speed=21.4x    frame=11646 fps=513 q=-0.0 size=N/A time=00:08:05.73 bitrate=N/A speed=21.4x    frame=11907 fps=513 q=-0.0 size=N/A time=00:08:16.62 bitrate=N/A speed=21.4x    frame=12151 fps=512 q=-0.0 size=N/A time=00:08:26.79 bitrate=N/A speed=21.3x    frame=12426 fps=512 q=-0.0 size=N/A time=00:08:38.26 bitrate=N/A speed=21.4x    frame=12688 fps=512 q=-0.0 size=N/A time=00:08:49.19 bitrate=N/A speed=21.4x    frame=12889 fps=510 q=-0.0 size=N/A time=00:08:57.57 bitrate=N/A speed=21.3x    frame=13131 fps=509 q=-0.0 size=N/A time=00:09:07.67 bitrate=N/A speed=21.2x    frame=13376 fps=508 q=-0.0 size=N/A time=00:09:17.89 bitrate=N/A speed=21.2x    frame=13659 fps=509 q=-0.0 size=N/A time=00:09:29.69 bitrate=N/A speed=21.2x    frame=13927 fps=509 q=-0.0 size=N/A time=00:09:40.87 bitrate=N/A speed=21.2x    frame=14169 fps=508 q=-0.0 size=N/A time=00:09:50.96 bitrate=N/A speed=21.2x    frame=14435 fps=509 q=-0.0 size=N/A time=00:10:02.05 bitrate=N/A speed=21.2x    frame=14705 fps=509 q=-0.0 size=N/A time=00:10:13.32 bitrate=N/A speed=21.2x    frame=14932 fps=508 q=-0.0 size=N/A time=00:10:22.78 bitrate=N/A speed=21.2x    frame=15210 fps=508 q=-0.0 size=N/A time=00:10:34.38 bitrate=N/A speed=21.2x    frame=15464 fps=508 q=-0.0 size=N/A time=00:10:44.97 bitrate=N/A speed=21.2x    frame=15734 fps=508 q=-0.0 size=N/A time=00:10:56.23 bitrate=N/A speed=21.2x    frame=15986 fps=508 q=-0.0 size=N/A time=00:11:06.74 bitrate=N/A speed=21.2x    frame=16211 fps=507 q=-0.0 size=N/A time=00:11:16.13 bitrate=N/A speed=21.1x    frame=16409 fps=505 q=-0.0 size=N/A time=00:11:24.39 bitrate=N/A speed=21.1x    frame=16674 fps=505 q=-0.0 size=N/A time=00:11:35.44 bitrate=N/A speed=21.1x    frame=16930 fps=505 q=-0.0 size=N/A time=00:11:46.12 bitrate=N/A speed=21.1x    frame=17205 fps=505 q=-0.0 size=N/A time=00:11:57.59 bitrate=N/A speed=21.1x    frame=17456 fps=505 q=-0.0 size=N/A time=00:12:08.06 bitrate=N/A speed=21.1x    frame=17721 fps=505 q=-0.0 size=N/A time=00:12:19.11 bitrate=N/A speed=21.1x    frame=17979 fps=505 q=-0.0 size=N/A time=00:12:29.87 bitrate=N/A speed=21.1x    frame=18265 fps=506 q=-0.0 size=N/A time=00:12:41.80 bitrate=N/A speed=21.1x    frame=18517 fps=506 q=-0.0 size=N/A time=00:12:52.31 bitrate=N/A speed=21.1x    frame=18793 fps=506 q=-0.0 size=N/A time=00:13:03.82 bitrate=N/A speed=21.1x    frame=19061 fps=506 q=-0.0 size=N/A time=00:13:15.00 bitrate=N/A speed=21.1x    frame=19318 fps=506 q=-0.0 size=N/A time=00:13:25.72 bitrate=N/A speed=21.1x    frame=19573 fps=506 q=-0.0 size=N/A time=00:13:36.35 bitrate=N/A speed=21.1x    frame=19836 fps=506 q=-0.0 size=N/A time=00:13:47.32 bitrate=N/A speed=21.1x    frame=20091 fps=506 q=-0.0 size=N/A time=00:13:57.96 bitrate=N/A speed=21.1x    frame=20338 fps=505 q=-0.0 size=N/A time=00:14:08.26 bitrate=N/A speed=21.1x    frame=20604 fps=505 q=-0.0 size=N/A time=00:14:19.35 bitrate=N/A speed=21.1x    frame=20854 fps=505 q=-0.0 size=N/A time=00:14:29.78 bitrate=N/A speed=21.1x    frame=21119 fps=505 q=-0.0 size=N/A time=00:14:40.83 bitrate=N/A speed=21.1x    frame=21367 fps=505 q=-0.0 size=N/A time=00:14:51.18 bitrate=N/A speed=21.1x    frame=21611 fps=505 q=-0.0 size=N/A time=00:15:01.35 bitrate=N/A speed=21.1x    frame=21868 fps=505 q=-0.0 size=N/A time=00:15:12.07 bitrate=N/A speed=21.1x    frame=22110 fps=504 q=-0.0 size=N/A time=00:15:22.17 bitrate=N/A speed=  21x    frame=22359 fps=504 q=-0.0 size=N/A time=00:15:32.55 bitrate=N/A speed=  21x    frame=22565 fps=503 q=-0.0 size=N/A time=00:15:41.14 bitrate=N/A speed=  21x    frame=22747 fps=501 q=-0.0 size=N/A time=00:15:48.73 bitrate=N/A speed=20.9x    frame=22915 fps=499 q=-0.0 size=N/A time=00:15:55.74 bitrate=N/A speed=20.8x    frame=23144 fps=498 q=-0.0 size=N/A time=00:16:05.29 bitrate=N/A speed=20.8x    frame=23330 fps=497 q=-0.0 size=N/A time=00:16:13.05 bitrate=N/A speed=20.7x    frame=23589 fps=497 q=-0.0 size=N/A time=00:16:23.85 bitrate=N/A speed=20.7x    frame=23851 fps=497 q=-0.0 size=N/A time=00:16:34.78 bitrate=N/A speed=20.7x    frame=24049 fps=496 q=-0.0 size=N/A time=00:16:43.04 bitrate=N/A speed=20.7x    frame=24248 fps=495 q=-0.0 size=N/A time=00:16:51.34 bitrate=N/A speed=20.6x    frame=24515 fps=495 q=-0.0 size=N/A time=00:17:02.47 bitrate=N/A speed=20.6x    frame=24746 fps=495 q=-0.0 size=N/A time=00:17:12.11 bitrate=N/A speed=20.6x    frame=24963 fps=494 q=-0.0 size=N/A time=00:17:21.16 bitrate=N/A speed=20.6x    frame=25140 fps=492 q=-0.0 size=N/A time=00:17:28.54 bitrate=N/A speed=20.5x    frame=25413 fps=493 q=-0.0 size=N/A time=00:17:39.93 bitrate=N/A speed=20.5x    frame=25654 fps=492 q=-0.0 size=N/A time=00:17:49.98 bitrate=N/A speed=20.5x    frame=25898 fps=492 q=-0.0 size=N/A time=00:18:00.16 bitrate=N/A speed=20.5x    frame=26161 fps=492 q=-0.0 size=N/A time=00:18:11.13 bitrate=N/A speed=20.5x    frame=26406 fps=492 q=-0.0 size=N/A time=00:18:21.35 bitrate=N/A speed=20.5x    frame=26635 fps=492 q=-0.0 size=N/A time=00:18:30.90 bitrate=N/A speed=20.5x    frame=26834 fps=491 q=-0.0 size=N/A time=00:18:39.20 bitrate=N/A speed=20.5x    frame=27065 fps=490 q=-0.0 size=N/A time=00:18:48.83 bitrate=N/A speed=20.4x    frame=27307 fps=490 q=-0.0 size=N/A time=00:18:58.92 bitrate=N/A speed=20.4x    frame=27539 fps=490 q=-0.0 size=N/A time=00:19:08.60 bitrate=N/A speed=20.4x    frame=27790 fps=490 q=-0.0 size=N/A time=00:19:19.07 bitrate=N/A speed=20.4x    frame=28039 fps=490 q=-0.0 size=N/A time=00:19:29.45 bitrate=N/A speed=20.4x    frame=28315 fps=490 q=-0.0 size=N/A time=00:19:40.97 bitrate=N/A speed=20.4x    frame=28513 fps=489 q=-0.0 size=N/A time=00:19:49.22 bitrate=N/A speed=20.4x    frame=28740 fps=489 q=-0.0 size=N/A time=00:19:58.69 bitrate=N/A speed=20.4x    frame=28987 fps=489 q=-0.0 size=N/A time=00:20:08.99 bitrate=N/A speed=20.4x    frame=29251 fps=489 q=-0.0 size=N/A time=00:20:20.01 bitrate=N/A speed=20.4x    frame=29480 fps=488 q=-0.0 size=N/A time=00:20:29.56 bitrate=N/A speed=20.4x    frame=29762 fps=489 q=-0.0 size=N/A time=00:20:41.32 bitrate=N/A speed=20.4x    frame=30023 fps=489 q=-0.0 size=N/A time=00:20:52.20 bitrate=N/A speed=20.4x    frame=30305 fps=490 q=-0.0 size=N/A time=00:21:03.97 bitrate=N/A speed=20.4x    frame=30532 fps=489 q=-0.0 size=N/A time=00:21:13.43 bitrate=N/A speed=20.4x    frame=30746 fps=488 q=-0.0 size=N/A time=00:21:22.36 bitrate=N/A speed=20.4x    frame=31008 fps=489 q=-0.0 size=N/A time=00:21:33.29 bitrate=N/A speed=20.4x    frame=31250 fps=488 q=-0.0 size=N/A time=00:21:43.38 bitrate=N/A speed=20.4x    frame=31443 fps=488 q=-0.0 size=N/A time=00:21:51.43 bitrate=N/A speed=20.3x    frame=31671 fps=487 q=-0.0 size=N/A time=00:22:00.94 bitrate=N/A speed=20.3x    frame=31862 fps=486 q=-0.0 size=N/A time=00:22:08.91 bitrate=N/A speed=20.3x    frame=32093 fps=486 q=-0.0 size=N/A time=00:22:18.54 bitrate=N/A speed=20.3x    frame=32375 fps=486 q=-0.0 size=N/A time=00:22:30.30 bitrate=N/A speed=20.3x    frame=32618 fps=486 q=-0.0 size=N/A time=00:22:40.44 bitrate=N/A speed=20.3x    frame=32873 fps=486 q=-0.0 size=N/A time=00:22:51.07 bitrate=N/A speed=20.3x    frame=33049 fps=485 q=-0.0 size=N/A time=00:22:58.41 bitrate=N/A speed=20.2x    frame=33220 fps=484 q=-0.0 size=N/A time=00:23:05.55 bitrate=N/A speed=20.2x    frame=33385 fps=483 q=-0.0 size=N/A time=00:23:12.43 bitrate=N/A speed=20.1x    frame=33556 fps=482 q=-0.0 size=N/A time=00:23:19.56 bitrate=N/A speed=20.1x    frame=33735 fps=481 q=-0.0 size=N/A time=00:23:27.03 bitrate=N/A speed=20.1x    frame=33925 fps=480 q=-0.0 size=N/A time=00:23:34.95 bitrate=N/A speed=  20x    frame=34083 fps=479 q=-0.0 size=N/A time=00:23:41.54 bitrate=N/A speed=  20x    frame=34252 fps=478 q=-0.0 size=N/A time=00:23:48.59 bitrate=N/A speed=19.9x    frame=34424 fps=477 q=-0.0 size=N/A time=00:23:55.76 bitrate=N/A speed=19.9x    frame=34598 fps=476 q=-0.0 size=N/A time=00:24:03.02 bitrate=N/A speed=19.8x    frame=34832 fps=476 q=-0.0 size=N/A time=00:24:12.78 bitrate=N/A speed=19.8x    [Parsed_psnr_10 @ 000002532a7385c0] PSNR y:48.287608 u:50.509712 v:50.050883 average:48.854473 min:40.950216 max:inf
[out#0/null @ 000002531d666d00] video:15057KiB audio:274052KiB subtitle:0KiB other streams:0KiB global headers:0KiB muxing overhead: unknown
frame=35041 fps=475 q=-0.0 Lsize=N/A time=00:24:21.50 bitrate=N/A speed=19.8x    
